<?xml version="1.0" encoding="UTF-8" standalone="no"?>
<!-- Created with Inkscape (http://www.inkscape.org/) -->

<svg
   width="40"
   height="40"
   viewBox="0 0 40 40"
   version="1.1"
   id="svg1"
   xmlns:xlink="http://www.w3.org/1999/xlink"
   xmlns="http://www.w3.org/2000/svg"
   xmlns:svg="http://www.w3.org/2000/svg">
  <defs
     id="defs1" />
  <g
     id="layer1">
    <path
       d="M 5.6707362,7.7752541 A 0.95528424,0.95642273 0 0 0 4.715452,8.7316768 v 1.9838302 a 0.95528424,0.95642273 0 0 0 0.9552842,0.956423 h 0.6269053 27.4047175 0.626905 a 0.95528424,0.95642273 0 0 0 0.955284,-0.956423 V 8.7316768 A 0.95528424,0.95642273 0 0 0 34.329264,7.7752541 H 25.272721 14.727279 Z"
       style="fill:none;stroke:#f5f5dc;stroke-width:1.43091;stroke-dasharray:none;stroke-opacity:1"
       id="path18" />
    <path
       d="M 15.682563,4.7154485 A 0.95528424,0.95642273 0 0 0 14.727279,5.6718712 V 7.7752541 H 25.272721 V 5.6718712 A 0.95528424,0.95642273 0 0 0 24.317437,4.7154485 Z"
       style="fill:none;stroke:#f5f5dc;stroke-width:1.43091;stroke-dasharray:none;stroke-opacity:1"
       id="path17" />
    <path
       d="M 33.702359,11.67193 H 6.2976415 l 2.4926949,20.800326 a 3.2303548,3.2342047 0 0 0 3.2072926,2.84872 h 16.006608 a 3.2302759,3.2341257 0 0 0 3.207292,-2.84872 z"
       style="fill:none;stroke:#f5f5dc;stroke-width:1.35806;stroke-dasharray:none;stroke-opacity:1"
       id="path19" />
    <rect
       style="fill:#f5f5dc;fill-opacity:1;stroke:none;stroke-width:0.955853;stroke-dasharray:none;stroke-opacity:1"
       id="rect12"
       width="2.3643284"
       height="16.693529"
       x="18.424736"
       y="15.018929"
       ry="1.1835731" />
    <use
       x="0"
       y="0"
       xlink:href="#rect12"
       id="use13"
       style="fill:#000000;fill-opacity:1"
       transform="translate(-5.7317057)" />
    <use
       x="0"
       y="0"
       xlink:href="#rect12"
       id="use14"
       style="fill:#000000;fill-opacity:1"
       transform="translate(5.7317052)" />
  </g>
</svg>
